HIERARCHY
ROOT Hips
{
  OFFSET -46.8219 88.2261 38.8477
  CHANNELS 6 Xposition Yposition Zposition Zrotation Xrotation Yrotation
  JOINT ToSpine
  {
    OFFSET -2.69724 7.43032 -0.144315
    CHANNELS 3 Zrotation Xrotation Yrotation
    JOINT Spine
    {
      OFFSET -0.0310711 10.7595 1.96963
      CHANNELS 3 Zrotation Xrotation Yrotation
      JOINT Spine1
      {
        OFFSET 19.9056 3.91189 0.764692
        CHANNELS 3 Zrotation Xrotation Yrotation
        JOINT Neck
        {
          OFFSET 25.9749 7.03908 -0.130764
          CHANNELS 3 Zrotation Xrotation Yrotation
          JOINT Head
          {
            OFFSET 9.52751 0.295786 -0.907742
            CHANNELS 3 Zrotation Xrotation Yrotation
            End Site
            {
              OFFSET 16.4037 0.713936 2.7358
            }
          }
        }
        JOINT LeftShoulder
        {
          OFFSET 17.7449 4.33886 11.7777
          CHANNELS 3 Zrotation Xrotation Yrotation
          JOINT LeftArm
          {
            OFFSET 0.911315 1.27913 9.80584
            CHANNELS 3 Zrotation Xrotation Yrotation
            JOINT LeftForeArm
            {
              OFFSET 28.6126 1.18197 -3.53199
              CHANNELS 3 Zrotation Xrotation Yrotation
              JOINT LeftHand
              {
                OFFSET 27.5088 0.0218783 0.327423
                CHANNELS 3 Zrotation Xrotation Yrotation
                End Site
                {
                  OFFSET 18.6038 -0.000155887 0.382096
                }
              }
            }
          }
        }
        JOINT RightShoulder
        {
          OFFSET 17.1009 2.89543 -12.2328
          CHANNELS 3 Zrotation Xrotation Yrotation
          JOINT RightArm
          {
            OFFSET 1.4228 0.178766 -10.211
            CHANNELS 3 Zrotation Xrotation Yrotation
            JOINT RightForeArm
            {
              OFFSET 28.733 1.87905 2.64907
              CHANNELS 3 Zrotation Xrotation Yrotation
              JOINT RightHand
              {
                OFFSET 27.4588 0.290562 -0.101845
                CHANNELS 3 Zrotation Xrotation Yrotation
                End Site
                {
                  OFFSET 17.8396 -0.255518 -0.000602873
                }
              }
            }
          }
        }
      }
    }
  }
  JOINT LeftUpLeg
  {
    OFFSET -5.61296 -2.22332 -10.2353
    CHANNELS 3 Zrotation Xrotation Yrotation
    JOINT LeftLeg
    {
      OFFSET 2.56703 -44.7417 -7.93097
      CHANNELS 3 Zrotation Xrotation Yrotation
      JOINT LeftFoot
      {
        OFFSET 3.16933 -46.5642 -3.96578
        CHANNELS 3 Zrotation Xrotation Yrotation
        JOINT LeftToeBase
        {
          OFFSET 0.346054 -6.02161 12.8035
          CHANNELS 3 Zrotation Xrotation Yrotation
          End Site
          {
            OFFSET 0.134235 -1.35082 5.13018
          }
        }
      }
    }
  }
  JOINT RightUpLeg
  {
    OFFSET -5.7928 -1.72406 10.6446
    CHANNELS 3 Zrotation Xrotation Yrotation
    JOINT RightLeg
    {
      OFFSET -2.57161 -44.7178 -7.85259
      CHANNELS 3 Zrotation Xrotation Yrotation
      JOINT RightFoot
      {
        OFFSET -3.10148 -46.5936 -4.03391
        CHANNELS 3 Zrotation Xrotation Yrotation
        JOINT RightToeBase
        {
          OFFSET -0.0828122 -6.13587 12.8035
          CHANNELS 3 Zrotation Xrotation Yrotation
          End Site
          {
            OFFSET -0.131328 -1.35082 5.13018
          }
        }
      }
    }
  }
}
MOTION
Frames:	10
Frame Time:	0.0333333
-34.0956 87.9484 30.3288 67.8604 44.2062 32.1799 -70.1915 0 88.8779 134.543 64.061 -41.3032 11.115 19.4038 2.73563 -156.61 10.7598 -175.701 -135.803 41.1695 156.187 2.78861 0.499763 -28.0931 -89.747 32.7335 -114.032 3.80696 1.95357 -43.7029 8.6628 -0.708169 -7.385 0.17133 0.123467 24.1657 -65.8338 -57.2423 80.6822 1.2446 1.29663 45.1053 9.44517 0.100173 0.932434 -31.0489 -1.19775 99.3646 -124.696 85.3589 121.187 6.5638 9.11805 -0.766454 -5.37383 -18.6279 9.78762 -29.8737 -16.7609 86.11 3.09812 47.2271 8.17929 -4.43925 -4.19902 0.8449 5.80829 -3.17402 -13.5969 
-26.0074 85.9215 26.4095 65.4101 49.5696 36.3332 -70.1915 0 88.8779 135.76 62.9942 -41.0828 12.3042 18.4192 4.10372 -157.979 11.5797 -177.602 -134.266 41.5644 155.241 2.95607 0.691691 -29.4893 -78.0009 36.5045 -113.208 3.41244 1.6622 -41.0469 8.40169 -0.628527 -6.62025 0.199719 -0.142278 24.7078 -69.3756 -54.8492 80.2851 2.13448 0.418738 45.0161 8.67211 0.122594 1.37582 -24.5764 2.24788 97.6006 -158.77 78.6026 157.636 7.3604 9.10478 -0.924384 -6.45408 -24.793 9.21582 -35.4572 -16.4446 85.7473 3.33586 51.2653 5.37797 -4.45792 -3.72236 0.830954 5.81559 1.90764 -16.5989 
-18.0444 83.0343 22.1838 61.382 55.5533 42.5556 -70.1915 0 88.8779 137.11 61.9867 -40.6081 13.3068 17.4528 5.41643 -159.806 12.8649 -179.795 -133.044 42.6805 154.589 3.05675 0.497388 -30.8837 -67.8228 39.445 -113.7 2.88196 1.30852 -32.5778 7.50172 -0.522406 -6.03671 0.325447 -1.1832 25.0343 -72.325 -50.5557 84.0225 2.17083 0.396677 44.6553 10.1669 0.118787 1.05726 -15.5262 1.14633 94.6244 -162.691 73.855 156.777 7.56224 6.58922 -0.980612 -6.93692 -27.3993 9.67466 -43.0905 -17.1047 80.2399 4.05265 56.6452 3.19903 -6.55223 -7.82631 1.07819 9.62594 -11.8851 -20.4257 
-11.0046 80.1227 18.3251 60.9152 55.203 46.3932 -70.1915 0 88.8779 143.444 62.977 -43.2018 13.9909 19.4762 4.70829 -163.129 13.9338 178.193 -131.128 43.4413 154.391 2.80953 -0.91236 -31.0712 -59.0587 42.1914 -116.072 2.30459 1.64201 -20.7967 9.5023 -0.348441 -2.43736 0.396718 -1.78323 24.86 -77.2288 -44.4701 90.6733 3.69493 -1.13056 44.9483 11.1093 0.00651492 -0.294503 -3.44538 3.21587 93.7039 -161.934 74.5801 155.447 8.25156 7.65324 -1.1017 -8.13583 -32.9811 7.84228 -44.8842 -15.7106 75.2951 6.73803 64.4958 4.77528 -7.18467 -11.8332 1.14867 11.1056 -20.4873 -19.6345 
-5.29767 79.5847 13.6282 66.9859 52.0639 41.5331 -70.1915 0 88.8779 151.532 61.9452 -52.0304 13.879 21.9308 2.89802 -163.744 13.3729 177.316 -128.917 42.4909 155.849 2.88569 -1.59189 -33.6799 -75.1874 45.4647 -98.2043 -3.97098 8.59537 -12.6491 10.9358 -0.218327 -0.587276 0.176354 0.113954 23.4965 -83.4512 -38.4406 99.0234 7.79136 -4.89563 47.0583 10.8217 -0.0277961 -0.677237 2.27085 7.48534 96.0986 -141.622 83.82 139.257 8.54468 8.48175 -1.15767 -8.8726 -35.9379 6.98301 -49.2502 -14.6263 74.038 8.10666 65.5547 10.2835 -8.49202 -12.2603 1.17157 11.9395 -25.5024 -18.0355 
0.220516 79.833 8.83459 64.9156 47.7774 42.2178 -70.1915 0 88.8779 152.192 63.8968 -55.7543 10.9578 23.5268 2.61292 -162.634 12.942 176.184 -129.283 42.3663 157 2.57692 -2.83914 -33.0296 -94.0417 44.2761 -80.087 -9.5201 21.0033 -0.765303 10.2904 -0.192215 -0.447637 0.204177 -0.013771 20.5457 -92.3143 -41.1456 103.276 11.5589 -6.66486 54.3644 10.3013 0.0220092 -0.105906 9.15554 9.13958 98.2371 -22.7486 82.2772 22.3238 6.5098 8.6657 -0.762723 -8.32534 -33.9904 8.17675 -51.7872 -13.3687 73.2444 7.04185 61.7186 14.702 -9.45221 -13.3059 1.17393 12.9046 -29.9233 -17.148 
5.82108 80.9434 2.38341 60.0122 46.6657 45.2962 -70.1915 0 88.8779 148.317 66.5108 -54.6925 9.41633 23.796 1.84846 -161.657 13.1243 173.669 -129.451 42.5783 157.126 1.97212 -5.28069 -30.8322 -101.156 43.6842 -72.9018 -10.9962 31.158 6.9727 11.4286 -0.351078 -1.77824 0.288779 -1.17722 18.5058 -95.1367 -45.0308 103.959 11.4178 -4.1758 67.2248 11.8962 0.143749 1.09162 11.5823 8.00937 101.763 -9.89767 74.6626 8.53359 6.99316 10.5004 -0.83592 -7.93434 -31.9398 7.50807 -57.7026 -11.0362 73.581 5.12401 54.2089 16.3859 -8.82677 -14.3323 1.16503 13.0266 -30.1535 -17.8767 
12.0703 81.993 -5.80387 56.9695 47.8876 49.0349 -70.1915 0 88.8779 143.453 67.3954 -50.7997 9.36612 23.2632 0.645807 -158.68 12.9393 171.385 -129.689 42.7958 158.193 1.68645 -6.45963 -28.9502 -103.968 42.535 -71.8583 -10.8344 32.4904 9.02738 11.7863 -0.413561 -2.26234 0.303871 -1.49018 17.888 -90.0171 -46.7149 104.622 18.778 -4.02812 78.4105 10.5941 0.297337 3.04265 9.32544 6.63683 103.28 -11.2568 75.9305 9.39502 6.56814 9.59181 -0.760255 -6.60115 -25.5811 9.17249 -67.8445 -4.14846 77.8565 3.1831 44.0945 12.6351 -6.97474 -12.3778 1.15083 12.697 -27.8793 -19.8608 
17.4826 82.8462 -14.3404 53.175 49.0227 52.5115 -70.1915 0 88.8779 137.394 68.1967 -46.5127 9.34131 22.6542 0.258635 -157.782 12.6952 171.281 -131.061 43.3189 159.476 1.84946 -5.54282 -29.0919 -102.684 39.9942 -77.6927 -10.0664 28.1936 8.66371 11.3973 -0.32383 -1.52254 0.354453 -2.33483 17.9334 -79.5502 -47.7078 106.934 23.6219 -3.53755 82.6126 9.98105 0.302682 3.33185 3.81551 4.55037 105.053 -14.5638 78.7978 13.8218 5.3671 9.90101 -0.509653 -4.93331 -17.1482 7.53649 -71.552 -3.66498 77.8153 2.91871 45.8538 8.29754 -4.18177 -10.4464 1.04386 6.77226 -6.23107 -14.4495 
21.2473 83.9363 -21.9507 51.1978 48.1924 54.7417 -70.1915 0 88.8779 135.906 68.128 -44.942 10.2411 23.0565 -2.05765 -160.346 12.5436 172.034 -132.345 43.6149 160.202 2.27465 -3.41378 -30.0561 -101.877 38.0241 -87.7936 -9.17018 25.5905 8.48485 10.8478 -0.364525 -2.09855 0.367518 -1.96819 20.7392 -73.0705 -46.4011 103.986 23.3396 -4.61498 79.5673 10.265 0.44577 4.91716 -3.55384 2.48936 104.482 -12.556 76.4863 9.15087 8.10344 11.2202 -1.06755 -7.77886 -31.2525 7.63727 -66.5413 -1.5642 83.9102 4.81912 59.9631 4.30545 -6.15031 -3.65078 0.981402 4.07973 -0.747146 -10.3136 
